<svg width="781" height="443" viewBox="0 0 781 443" fill="none" xmlns="http://www.w3.org/2000/svg">
<path d="M642.949 37.889C674.346 3.72731 731.969 -6.2986 768.971 3.66013C776.505 5.68761 781 12.9483 781 20.7497V423C781 434.046 772.046 443 761 443H55.1644C36.4673 443 28.3167 420.029 43.1388 408.632C68.335 389.259 100.458 365.778 127.836 349.626C162.169 329.371 181.523 331.152 241.683 307.678C297.159 286.032 300.615 264.346 354.082 167.388C393.879 95.2187 494.447 90.1968 545.124 95.2187C582.751 98.9473 601.512 82.9754 642.949 37.889Z" fill="#CAD7FF"/>
<path d="M642.949 37.889C678.007 -0.256073 745.763 -8.30855 781 7.95237C781 7.95237 771.5 443 743.5 443H0C0 443 73.3249 381.785 127.836 349.626C162.169 329.371 181.523 331.152 241.683 307.678C297.159 286.032 300.615 264.346 354.082 167.388C393.879 95.2187 494.447 90.1968 545.124 95.2187C582.751 98.9473 601.512 82.9754 642.949 37.889Z" fill="#CAD7FF"/>
<path d="M656.737 87.2705C688.293 53.7751 749.282 46.7042 781 60.983C781 60.983 777.5 440.5 745.5 440.5C713.5 440.5 78 443 78 443C78 443 144.002 389.247 193.069 361.008C223.973 343.222 241.394 344.786 295.545 324.174C345.481 305.166 348.592 286.123 396.719 200.984C432.541 137.612 523.066 133.202 568.682 137.612C602.551 140.886 619.438 126.861 656.737 87.2705Z" fill="#A5BCFF"/>
<path d="M656.737 87.2705C684.605 57.6899 735.428 48.718 768.773 56.8595C776.418 58.726 781 66.0435 781 73.9126V423C781 434.046 772.046 443 761 443H134.229C115.411 443 107.358 419.829 122.469 408.614C144.175 392.505 170.425 374.04 193.069 361.008C223.973 343.222 241.394 344.786 295.545 324.174C345.481 305.166 348.592 286.123 396.719 200.984C432.541 137.612 523.066 133.202 568.682 137.612C602.551 140.886 619.438 126.861 656.737 87.2705Z" fill="#A5BCFF"/>
</svg>
